<?xml version="1.0" encoding="utf-8"?>
<!-- Generator: Adobe Illustrator 27.1.1, SVG Export Plug-In . SVG Version: 6.00 Build 0)  -->
<svg version="1.1" id="Layer_1" xmlns="http://www.w3.org/2000/svg" xmlns:xlink="http://www.w3.org/1999/xlink" x="0px" y="0px"
	 viewBox="0 0 595.3 841.9" style="enable-background:new 0 0 595.3 841.9;" xml:space="preserve">
<style type="text/css">
	.st0{fill:#FFFFFF;}
</style>
<g>
	<path class="st0" d="M413.3,713.8c-6.5-19.5-12.9-38.7-19.2-57.8c-21.7-65.3-43.4-130.6-65-195.9c-6.9-20.7-13.7-41.3-20.6-62
		c-1.8-5.5-5.4-8-10.4-7.2c-4.6,0.7-7.1,4.2-7.1,10c0.1,45.6,0.1,91.1,0.2,136.7c0,18.8,0.1,37.6,0.2,56.5
		c0.2,62.1,0.3,124.2,0.6,186.3c0,2.7-0.7,4.2-3.2,5.6c-28.2,16.1-56.2,32.4-84.4,48.6c-0.7,0.4-1.4,0.7-2.6,1.3c0-9,0-17.6,0-26.2
		c0-20.5,0-41-0.1-61.5c-0.1-39.8-0.1-79.6-0.2-119.4c-0.1-64.1-0.3-128.2-0.5-192.4c-0.1-20-0.1-40-0.2-60
		c-0.1-32.7-0.3-65.4-0.5-98.1c0-2.6,0.8-3.9,3.1-5.2C241.6,251,279.6,229,317.6,207c0.6-0.4,1.3-0.7,2.3-1.2
		c2.4,7.1,4.8,14.1,7.1,21.1c22.8,67.9,45.5,135.8,68.3,203.6c10.1,30.1,20.2,60.2,30.3,90.3c1.8,5.4,5.3,7.6,10.6,6.7
		c4.2-0.7,6.8-4.3,6.8-9.6c0-28.8,0-57.5-0.1-86.3c0-20.1-0.1-40.3-0.2-60.4c-0.2-64.4-0.4-128.7-0.5-193.1
		c0-13.3-0.2-26.6-0.1-39.9c0-1.4,0.8-3.4,1.9-4c28.6-16.7,57.2-33.2,85.8-49.7c0.5-0.3,1-0.4,1.8-0.8c0.2,2.5,0.4,4.8,0.4,7
		c0.1,61,0.1,122,0.2,183.1c0,21.2,0.1,42.4,0.2,63.6c0.2,58.4,0.4,116.7,0.5,175.1c0.1,26,0.1,52,0.2,78c0.1,17,0.3,34,0.2,51
		c0,1.3-0.8,3.3-1.9,4c-38.9,22.6-77.9,45.1-116.8,67.5C414.4,713.3,414,713.5,413.3,713.8z"/>
	<path class="st0" d="M63,202.9c12.1,7,23.7,13.8,35.4,20.5c28.2,16.4,56.3,32.8,84.5,49c2.6,1.5,3.6,3.1,3.6,6.1
		c0.1,72,0.3,144.1,0.4,216.1c0.1,20.9,0.1,41.7,0.2,62.6c0.2,63.5,0.3,127,0.5,190.6c0.1,21.1,0.1,42.2,0.2,63.3c0,8,0,16,0,24.4
		c-0.8-0.4-1.7-0.7-2.5-1.2c-39.4-22.9-78.8-45.8-118.2-68.7c-1.9-1.1-2.7-2.3-2.7-4.5c0-12.7-0.1-25.4-0.2-38.1
		c-0.2-75.8-0.3-151.5-0.5-227.3c0-21-0.1-42-0.2-62.9c-0.2-63.5-0.3-127-0.5-190.6C63,229.3,63,216.4,63,202.9z"/>
	<path class="st0" d="M428,483.7c-4.4-12.9-8.7-25.9-13.1-38.8c-27.8-83-55.6-166-83.6-248.9c-1.2-3.5-4.6-6.7-7.7-8.9
		c-5.7-4-12.1-7.1-18.1-10.8c-1-0.6-2.1-2.1-2.1-3.2c-0.1-36.4-0.1-72.9-0.1-109.7c0.9,0.4,1.7,0.6,2.3,0.9
		c40,23.2,80.1,46.5,120.1,69.7c2,1.2,2.1,2.5,2.1,4.4c0,13.8,0,27.6,0.1,41.4c0.1,39.9,0.1,79.8,0.2,119.8
		c0.1,60,0.3,120.1,0.5,180.1c0,1.3,0,2.6,0,4C428.4,483.6,428.2,483.7,428,483.7z"/>
	<path class="st0" d="M309.5,195.3c-26.4,15.2-52.2,30.1-78,45.1c-11.8,6.8-23.6,13.6-35.3,20.4c-1.6,0.9-2.9,1.5-4.9,0.4
		c-40.2-23.4-80.4-46.8-120.6-70.2c-0.2-0.1-0.4-0.3-0.7-0.5c14-8.1,28-16.1,41.9-24.2c23.9-13.8,47.7-27.5,71.6-41.4
		c1.6-0.9,2.8-1.3,4.8-0.2c39.2,22.9,78.6,45.7,117.8,68.6C307.1,193.8,308.1,194.4,309.5,195.3z"/>
	<path class="st0" d="M524.5,71.2c-15.3,8.9-30.6,17.7-45.8,26.5c-13.8,8-27.7,15.9-41.5,24c-1.6,0.9-2.8,1.1-4.5,0.1
		c-39.5-23-79-45.9-118.5-68.9c-0.9-0.5-1.8-1.2-2.8-1.8c24.8-14.3,49.3-28.5,73.9-42.7c4.5-2.6,9-5.3,13.6-7.8
		c1-0.6,2.9-0.8,3.8-0.2c40.5,23.4,80.9,47,121.3,70.5C524.1,70.9,524.2,71,524.5,71.2z"/>
	<path class="st0" d="M395.4,706.6c-8.5-4.8-17-9.5-25.5-14.4c-21.4-12.3-42.7-24.7-64.4-37.2c0-73,0-146.2,0-219.3
		c0.1-0.1,0.3-0.1,0.4-0.2c2.1,6.3,4.2,12.6,6.3,19c14.6,43.9,29.1,87.7,43.7,131.6c13,39.2,26,78.3,39,117.4
		c0.3,0.9,0.6,1.8,0.8,2.7C395.7,706.4,395.6,706.5,395.4,706.6z"/>
	<path d="M395.8,706.2c0,0.3,0.1,0.6,0.1,0.8c-0.2-0.2-0.3-0.3-0.5-0.4C395.6,706.5,395.7,706.4,395.8,706.2z"/>
</g>
</svg>
