<?xml version="1.0" encoding="utf-8"?>
<!-- Generator: Adobe Illustrator 27.1.1, SVG Export Plug-In . SVG Version: 6.00 Build 0)  -->
<svg version="1.1" id="Layer_1" xmlns="http://www.w3.org/2000/svg" xmlns:xlink="http://www.w3.org/1999/xlink" x="0px" y="0px"
	 viewBox="0 0 512 512" style="enable-background:new 0 0 512 512;" xml:space="preserve">
<style type="text/css">
	.st0{fill:#FFFFFF;}
</style>
<g>
	<path class="st0" d="M326.14,436.54c-3.97-11.9-7.87-23.62-11.72-35.27c-13.24-39.85-26.49-79.7-39.67-119.55
		c-4.21-12.63-8.36-25.2-12.57-37.84c-1.1-3.36-3.3-4.88-6.35-4.39c-2.81,0.43-4.33,2.56-4.33,6.1c0.06,27.83,0.06,55.6,0.12,83.42
		c0,11.47,0.06,22.95,0.12,34.48c0.12,37.9,0.18,75.8,0.37,113.69c0,1.65-0.43,2.56-1.95,3.42c-17.21,9.83-34.3,19.77-51.51,29.66
		c-0.43,0.24-0.85,0.43-1.59,0.79c0-5.49,0-10.74,0-15.99c0-12.51,0-25.02-0.06-37.53c-0.06-24.29-0.06-48.58-0.12-72.87
		c-0.06-39.12-0.18-78.24-0.31-117.42c-0.06-12.21-0.06-24.41-0.12-36.62c-0.06-19.96-0.18-39.91-0.31-59.87
		c0-1.59,0.49-2.38,1.89-3.17c23.31-13.49,46.5-26.91,69.69-40.34c0.37-0.24,0.79-0.43,1.4-0.73c1.46,4.33,2.93,8.6,4.33,12.88
		c13.91,41.44,27.77,82.87,41.68,124.25c6.16,18.37,12.33,36.74,18.49,55.11c1.1,3.3,3.23,4.64,6.47,4.09
		c2.56-0.43,4.15-2.62,4.15-5.86c0-17.58,0-35.09-0.06-52.67c0-12.27-0.06-24.59-0.12-36.86c-0.12-39.3-0.24-78.54-0.31-117.84
		c0-8.12-0.12-16.23-0.06-24.35c0-0.85,0.49-2.07,1.16-2.44c17.45-10.19,34.91-20.26,52.36-30.33c0.31-0.18,0.61-0.24,1.1-0.49
		c0.12,1.53,0.24,2.93,0.24,4.27c0.06,37.23,0.06,74.45,0.12,111.74c0,12.94,0.06,25.88,0.12,38.81
		c0.12,35.64,0.24,71.22,0.31,106.86c0.06,15.87,0.06,31.73,0.12,47.6c0.06,10.37,0.18,20.75,0.12,31.12c0,0.79-0.49,2.01-1.16,2.44
		c-23.74,13.79-47.54,27.52-71.28,41.19C326.81,436.23,326.57,436.35,326.14,436.54z"/>
	<path class="st0" d="M112.61,125.4c7.36,4.26,14.41,8.39,21.53,12.47c17.15,9.97,34.24,19.95,51.39,29.8
		c1.58,0.91,2.19,1.89,2.19,3.71c0.06,43.79,0.18,87.65,0.24,131.44c0.06,12.71,0.06,25.36,0.12,38.07
		c0.12,38.62,0.18,77.24,0.3,115.93c0.06,12.83,0.06,25.67,0.12,38.5c0,4.87,0,9.73,0,14.84c-0.49-0.24-1.03-0.43-1.52-0.73
		c-23.96-13.93-47.93-27.86-71.89-41.78c-1.16-0.67-1.64-1.4-1.64-2.74c0-7.72-0.06-15.45-0.12-23.17
		c-0.12-46.1-0.18-92.15-0.3-138.25c0-12.77-0.06-25.55-0.12-38.26c-0.12-38.62-0.18-77.24-0.3-115.93
		C112.61,141.45,112.61,133.61,112.61,125.4z"/>
	<path class="st0" d="M335.69,296.11c-2.69-7.87-5.31-15.81-7.99-23.68c-16.97-50.65-33.93-101.3-51.02-151.9
		c-0.73-2.14-2.81-4.09-4.7-5.43c-3.48-2.44-7.38-4.33-11.05-6.59c-0.61-0.37-1.28-1.28-1.28-1.95
		c-0.06-22.21-0.06-44.49-0.06-66.95c0.55,0.24,1.04,0.37,1.4,0.55c24.41,14.16,48.88,28.38,73.29,42.54
		c1.22,0.73,1.28,1.53,1.28,2.69c0,8.42,0,16.84,0.06,25.27c0.06,24.35,0.06,48.7,0.12,73.11c0.06,36.62,0.18,73.29,0.31,109.91
		c0,0.79,0,1.59,0,2.44C335.93,296.05,335.81,296.11,335.69,296.11z"/>
	<path class="st0" d="M263.04,120.11c-16.11,9.28-31.86,18.37-47.6,27.52c-7.2,4.15-14.4,8.3-21.54,12.45
		c-0.98,0.55-1.77,0.92-2.99,0.24c-24.53-14.28-49.07-28.56-73.6-42.84c-0.12-0.06-0.24-0.18-0.43-0.31
		c8.54-4.94,17.09-9.83,25.57-14.77c14.59-8.42,29.11-16.78,43.7-25.27c0.98-0.55,1.71-0.79,2.93-0.12
		C213,91,237.04,104.92,260.97,118.89C261.58,119.2,262.19,119.56,263.04,120.11z"/>
	<path class="st0" d="M394.25,44.38c-9.34,5.43-18.67,10.8-27.95,16.17c-8.42,4.88-16.9,9.7-25.33,14.65
		c-0.98,0.55-1.71,0.67-2.75,0.06c-24.11-14.04-48.21-28.01-72.32-42.05c-0.55-0.31-1.1-0.73-1.71-1.1
		c15.13-8.73,30.09-17.39,45.1-26.06c2.75-1.59,5.49-3.23,8.3-4.76c0.61-0.37,1.77-0.49,2.32-0.12
		c24.72,14.28,49.37,28.68,74.03,43.02C394.01,44.19,394.07,44.26,394.25,44.38z"/>
	<path class="st0" d="M315.01,432.14c-5.19-2.93-10.37-5.8-15.56-8.79c-13.06-7.51-26.06-15.07-39.3-22.7V266.82
		c0.16-0.03,0.11-0.02,0.27-0.04c1.27,3.82,2.55,7.64,3.82,11.52c8.91,26.79,17.76,53.52,26.67,80.31
		c7.93,23.92,15.87,47.78,23.8,71.65c0.18,0.55,0.37,1.1,0.49,1.65C315.19,432.02,315.13,432.08,315.01,432.14z"/>
	<path d="M315.71,431.9c0,0.18,0.06,0.37,0.06,0.49c-0.12-0.12-0.18-0.18-0.31-0.24C315.59,432.08,315.65,432.02,315.71,431.9z"/>
</g>
</svg>
